<?xml version="1.0" encoding="UTF-8"?>
<svg width="1024px" height="1024px" viewBox="0 0 1024 1024" version="1.1" xmlns="http://www.w3.org/2000/svg" xmlns:xlink="http://www.w3.org/1999/xlink">
    <title>4 - Layer</title>
    <g id="Template---App-Icons" stroke="none" stroke-width="1" fill="none" fill-rule="evenodd">
        <g id="Group" transform="translate(103, 103)">
            <path d="M229.467725,0 L589.532275,1.45093462e-14 C669.323202,-8.430348e-15 698.25732,8.3078922 727.42769,23.908377 C756.598061,39.5088618 779.491138,62.4019392 795.091623,91.5723095 C810.692108,120.74268 819,149.676798 819,229.467725 L819,589.532275 C819,669.323202 810.692108,698.25732 795.091623,727.42769 C779.491138,756.598061 756.598061,779.491138 727.42769,795.091623 C698.25732,810.692108 669.323202,819 589.532275,819 L229.467725,819 C149.676798,819 120.74268,810.692108 91.5723095,795.091623 C62.4019392,779.491138 39.5088618,756.598061 23.908377,727.42769 C8.3078922,698.25732 0,669.323202 0,589.532275 L0,229.467725 C0,149.676798 8.3078922,120.74268 23.908377,91.5723095 C39.5088618,62.4019392 62.4019392,39.5088618 91.5723095,23.908377 C120.74268,8.3078922 149.676798,0 229.467725,0 Z" id="Rectangle" fill="color(display-p3 1.000 1.000 1.000)"></path>
            <rect id="Rectangle-12" fill="color(display-p3 0.902 0.314 0.000)" x="91.1777344" y="206.349609" width="159.161133" height="163.160156" rx="53.5707779"></rect>
            <rect id="Rectangle-13" fill="color(display-p3 0.000 0.200 0.231)" x="329.919434" y="206.349609" width="159.161133" height="163.160156" rx="53.5707779"></rect>
            <rect id="Rectangle-14" fill="color(display-p3 0.000 0.200 0.231)" x="568.661133" y="206.349609" width="159.161133" height="163.160156" rx="53.5707779"></rect>
            <rect id="Rectangle-17" fill="color(display-p3 0.000 0.200 0.231)" x="91.1777344" y="451.089844" width="159.161133" height="163.160156" rx="53.5707779"></rect>
            <rect id="Rectangle-15" fill="color(display-p3 0.000 0.200 0.231)" x="329.919434" y="451.089844" width="159.161133" height="163.160156" rx="53.5707779"></rect>
            <rect id="Rectangle-16" fill="color(display-p3 0.000 0.200 0.231)" x="568.661133" y="451.089844" width="159.161133" height="163.160156" rx="53.5707779"></rect>
        </g>
    </g>
</svg>