<?xml version="1.0" encoding="UTF-8"?>
<svg width="1024px" height="1024px" viewBox="0 0 1024 1024" version="1.1" xmlns="http://www.w3.org/2000/svg" xmlns:xlink="http://www.w3.org/1999/xlink">
    <title>Group 4</title>
    <g id="Welcome" stroke="none" stroke-width="1" fill="none" fill-rule="evenodd">
        <g id="Group-4">
            <path d="M141.013686,-7.25467311e-15 L882.986314,7.25467311e-15 C932.019845,-4.215174e-15 949.800588,5.10540861 967.726514,14.6922987 C985.65244,24.2791888 999.720811,38.3475604 1009.3077,56.2734863 C1018.89459,74.1994122 1024,91.9801553 1024,141.013686 L1024,882.986314 C1024,932.019845 1018.89459,949.800588 1009.3077,967.726514 C999.720811,985.65244 985.65244,999.720811 967.726514,1009.3077 C949.800588,1018.89459 932.019845,1024 882.986314,1024 L141.013686,1024 C91.9801553,1024 74.1994122,1018.89459 56.2734863,1009.3077 C38.3475604,999.720811 24.2791888,985.65244 14.6922987,967.726514 C5.10540861,949.800588 0,932.019845 0,882.986314 L7.25467311e-15,141.013686 C-4.215174e-15,91.9801553 5.10540861,74.1994122 14.6922987,56.2734863 C24.2791888,38.3475604 38.3475604,24.2791888 56.2734863,14.6922987 C74.1994122,5.10540861 91.9801553,4.215174e-15 141.013686,-7.25467311e-15 Z" id="Rectangle" fill="#FFFFFF"></path>
            <g id="Group" transform="translate(114, 258)" fill="#00333B">
                <rect id="Rectangle-12" x="0" y="0" width="199" height="204" rx="66.9798279"></rect>
                <rect id="Rectangle-13" x="298.5" y="0" width="199" height="204" rx="66.9798279"></rect>
                <rect id="Rectangle-14" x="597" y="0" width="199" height="204" rx="66.9798279"></rect>
                <rect id="Rectangle-17" x="0" y="306" width="199" height="204" rx="66.9798279"></rect>
                <rect id="Rectangle-15" x="298.5" y="306" width="199" height="204" rx="66.9798279"></rect>
                <rect id="Rectangle-16" x="597" y="306" width="199" height="204" rx="66.9798279"></rect>
            </g>
        </g>
    </g>
</svg>