<?xml version="1.0" encoding="UTF-8"?>
<svg width="60px" height="80px" viewBox="0 0 60 80" version="1.1" xmlns="http://www.w3.org/2000/svg" xmlns:xlink="http://www.w3.org/1999/xlink">
    <title>StackIcon</title>
    <g id="StackIcon" stroke="none" fill="none">
        <path d="M46.6870201,12.6803148 L46.7410463,12.7080393 C46.979838,12.8357465 47.1642535,13.020162 47.2919607,13.2589537 C47.44602,13.5470196 47.5,13.8265509 47.5,14.5638852 L47.5,77.4361148 C47.5,78.1734491 47.44602,78.4529804 47.2919607,78.7410463 C47.1642535,78.979838 46.979838,79.1642535 46.7410463,79.2919607 C46.4529804,79.44602 46.1734491,79.5 45.4361148,79.5 L2.5638852,79.5 C1.82655093,79.5 1.54701959,79.44602 1.25895373,79.2919607 C1.02016204,79.1642535 0.835746496,78.979838 0.708039303,78.7410463 C0.553979991,78.4529804 0.5,78.1734491 0.5,77.4361148 L0.5,14.5638852 C0.5,13.8265509 0.553979991,13.5470196 0.708039303,13.2589537 C0.835746496,13.020162 1.02016204,12.8357465 1.25895373,12.7080393 C1.54701959,12.55398 1.82655093,12.5 2.5638852,12.5 L45.4361148,12.5 C46.1273657,12.5 46.4162507,12.5474434 46.6870201,12.6803148 Z" id="Rectangle" stroke="#979797" stroke-width="1" fill="#FFFFFF" fill-rule="evenodd"></path>
        <path d="M52.6870201,6.68031479 L52.7410463,6.70803931 C52.979838,6.8357465 53.1642535,7.02016204 53.2919607,7.25895373 C53.44602,7.54701959 53.5,7.82655093 53.5,8.5638852 L53.5,71.4361148 C53.5,72.1734491 53.44602,72.4529804 53.2919607,72.7410463 C53.1642535,72.979838 52.979838,73.1642535 52.7410463,73.2919607 C52.4529804,73.44602 52.1734491,73.5 51.4361148,73.5 L8.5638852,73.5 C7.82655093,73.5 7.54701959,73.44602 7.25895373,73.2919607 C7.02016204,73.1642535 6.8357465,72.979838 6.7080393,72.7410463 C6.55397999,72.4529804 6.5,72.1734491 6.5,71.4361148 L6.5,8.5638852 C6.5,7.82655093 6.55397999,7.54701959 6.7080393,7.25895373 C6.8357465,7.02016204 7.02016204,6.8357465 7.25895373,6.7080393 C7.54701959,6.55397999 7.82655093,6.5 8.5638852,6.5 L51.4361148,6.5 C52.1273657,6.5 52.4162507,6.54744335 52.6870201,6.68031479 Z" id="Rectangle" stroke="#979797" stroke-width="1" fill="#FFFFFF" fill-rule="evenodd"></path>
        <path d="M58.6870201,0.68031479 L58.7410463,0.708039306 C58.979838,0.835746496 59.1642535,1.02016204 59.2919607,1.25895373 C59.44602,1.54701959 59.5,1.82655093 59.5,2.5638852 L59.5,65.4361148 C59.5,66.1734491 59.44602,66.4529804 59.2919607,66.7410463 C59.1642535,66.979838 58.979838,67.1642535 58.7410463,67.2919607 C58.4529804,67.44602 58.1734491,67.5 57.4361148,67.5 L14.5638852,67.5 C13.8265509,67.5 13.5470196,67.44602 13.2589537,67.2919607 C13.020162,67.1642535 12.8357465,66.979838 12.7080393,66.7410463 C12.55398,66.4529804 12.5,66.1734491 12.5,65.4361148 L12.5,2.5638852 C12.5,1.82655093 12.55398,1.54701959 12.7080393,1.25895373 C12.8357465,1.02016204 13.020162,0.835746496 13.2589537,0.708039303 C13.5470196,0.553979991 13.8265509,0.5 14.5638852,0.5 L57.4361148,0.5 C58.1273657,0.5 58.4162507,0.547443351 58.6870201,0.68031479 Z" id="Rectangle" stroke="#979797" stroke-width="1" fill="#FFFFFF" fill-rule="evenodd"></path>
        <line x1="21.5" y1="10.5" x2="50.5" y2="10.5" id="Line" stroke="#979797" stroke-width="2" stroke-linecap="round"></line>
        <line x1="21.5" y1="17.5" x2="50.5" y2="17.5" id="Line-Copy" stroke="#979797" stroke-width="2" stroke-linecap="round"></line>
        <line x1="21.5" y1="24.5" x2="50.5" y2="24.5" id="Line-Copy-2" stroke="#979797" stroke-width="2" stroke-linecap="round"></line>
        <line x1="21.5" y1="31.5" x2="50.5" y2="31.5" id="Line-Copy-3" stroke="#979797" stroke-width="2" stroke-linecap="round"></line>
        <line x1="21.5" y1="38.5" x2="50.5" y2="38.5" id="Line-Copy-4" stroke="#979797" stroke-width="2" stroke-linecap="round"></line>
    </g>
</svg>